HIERARCHY
ROOT Hips
{
	OFFSET 0.000000 83.214638 0.000000
	CHANNELS 6 Xposition Yposition Zposition Xrotation Yrotation Zrotation
	JOINT Pelvis
	{
		OFFSET 0.000000 0.000000 0.000000
		CHANNELS 3 Xrotation Yrotation Zrotation
		JOINT LeftUpLeg
		{
			OFFSET 8.479700 -4.795502 -0.379100
			CHANNELS 3 Xrotation Yrotation Zrotation
			JOINT LeftLeg
			{
				OFFSET 0.024144 -32.555107 0.112900
				CHANNELS 3 Xrotation Yrotation Zrotation
				JOINT LeftFoot
				{
					OFFSET -0.024144 -32.638630 -3.012600
					CHANNELS 3 Xrotation Yrotation Zrotation
					JOINT LeftToeBase
					{
						OFFSET 0.970200 -13.225400 11.864200
						CHANNELS 3 Xrotation Yrotation Zrotation
						End Site
						{
							OFFSET 0.000000 12.319262 0.000000
						}
					}
					JOINT LFootTongue
					{
						OFFSET 1.142400 -1.059800 6.665200
						CHANNELS 3 Xrotation Yrotation Zrotation
						End Site
						{
							OFFSET 0.000000 12.319262 0.000000
						}
					}
				}
				JOINT LeftPantLeg
				{
					OFFSET 0.918482 -16.533964 -2.284700
					CHANNELS 3 Xrotation Yrotation Zrotation
					End Site
					{
						OFFSET 0.350399 24.744368 0.000000
					}
				}
			}
		}
		JOINT RightUpLeg
		{
			OFFSET -8.479700 -4.795502 -0.379100
			CHANNELS 3 Xrotation Yrotation Zrotation
			JOINT RightLeg
			{
				OFFSET -0.023144 -32.555092 0.112900
				CHANNELS 3 Xrotation Yrotation Zrotation
				JOINT RightFoot
				{
					OFFSET 0.023144 -32.638641 -3.012700
					CHANNELS 3 Xrotation Yrotation Zrotation
					JOINT RightToeBase
					{
						OFFSET -0.970200 -13.225400 11.864200
						CHANNELS 3 Xrotation Yrotation Zrotation
						End Site
						{
							OFFSET 0.000000 12.319244 0.000000
						}
					}
					JOINT RFootTongue
					{
						OFFSET -1.142200 -1.059800 6.665200
						CHANNELS 3 Xrotation Yrotation Zrotation
						End Site
						{
							OFFSET 0.000000 12.319243 0.000000
						}
					}
				}
				JOINT RightPantLeg
				{
					OFFSET -0.919482 -16.533978 -2.284800
					CHANNELS 3 Xrotation Yrotation Zrotation
					End Site
					{
						OFFSET -0.350400 24.744419 0.000000
					}
				}
			}
		}
	}
	JOINT Spine
	{
		OFFSET 0.000000 7.722000 1.166200
		CHANNELS 3 Xrotation Yrotation Zrotation
		JOINT Spine1
		{
			OFFSET 0.000000 12.024101 0.248800
			CHANNELS 3 Xrotation Yrotation Zrotation
			JOINT Spine2
			{
				OFFSET 0.000000 11.502998 -0.491200
				CHANNELS 3 Xrotation Yrotation Zrotation
				JOINT Neck
				{
					OFFSET 0.000000 18.430702 -3.123100
					CHANNELS 3 Xrotation Yrotation Zrotation
					JOINT Head
					{
						OFFSET 0.000000 9.051102 1.034000
						CHANNELS 3 Xrotation Yrotation Zrotation
						JOINT HairB
						{
							OFFSET 0.208400 24.786102 24.822300
							CHANNELS 3 Xrotation Yrotation Zrotation
							End Site
							{
								OFFSET 0.000000 32.263779 0.000000
							}
						}
						JOINT HairA
						{
							OFFSET -7.081100 24.428299 23.196600
							CHANNELS 3 Xrotation Yrotation Zrotation
							End Site
							{
								OFFSET 0.000000 32.263779 0.000000
							}
						}
						JOINT Hat
						{
							OFFSET 16.728800 15.048294 -15.439601
							CHANNELS 3 Xrotation Yrotation Zrotation
							End Site
							{
								OFFSET 0.000000 32.263779 0.000000
							}
						}
					}
				}
				JOINT LeftShoulder
				{
					OFFSET 6.197800 13.665199 -4.064700
					CHANNELS 3 Xrotation Yrotation Zrotation
					JOINT LeftArm
					{
						OFFSET 7.778100 -0.187103 -1.709300
						CHANNELS 3 Xrotation Yrotation Zrotation
						JOINT LeftForeArm
						{
							OFFSET 22.049376 0.000000 0.000000
							CHANNELS 3 Xrotation Yrotation Zrotation
							JOINT LeftHand
							{
								OFFSET 23.009392 0.000000 0.000000
								CHANNELS 3 Xrotation Yrotation Zrotation
								JOINT LeftHandThumb1
								{
									OFFSET 3.507191 -2.063065 3.133727
									CHANNELS 3 Xrotation Yrotation Zrotation
									JOINT LeftHandThumb2
									{
										OFFSET 3.101337 -1.790558 1.790558
										CHANNELS 3 Xrotation Yrotation Zrotation
										JOINT LeftHandThumb3
										{
											OFFSET 3.058640 -1.765907 1.765906
											CHANNELS 3 Xrotation Yrotation Zrotation
											End Site
											{
												OFFSET -0.415260 3.926476 -0.049563
											}
										}
									}
								}
								JOINT LeftHandIndex1
								{
									OFFSET 11.334419 -0.901459 3.706815
									CHANNELS 3 Xrotation Yrotation Zrotation
									JOINT LeftHandIndex2
									{
										OFFSET 3.283112 0.000000 0.000000
										CHANNELS 3 Xrotation Yrotation Zrotation
										JOINT LeftHandIndex3
										{
											OFFSET 3.323853 0.000000 0.000000
											CHANNELS 3 Xrotation Yrotation Zrotation
											End Site
											{
												OFFSET -1.135597 3.097809 0.402452
											}
										}
									}
								}
								JOINT LeftHandMiddle1
								{
									OFFSET 11.335861 0.000000 0.000000
									CHANNELS 3 Xrotation Yrotation Zrotation
									JOINT LeftHandMiddle2
									{
										OFFSET 3.410492 0.000000 0.000000
										CHANNELS 3 Xrotation Yrotation Zrotation
										JOINT LeftHandMiddle3
										{
											OFFSET 3.312172 0.000000 0.000000
											CHANNELS 3 Xrotation Yrotation Zrotation
											End Site
											{
												OFFSET -1.150200 3.080154 0.400270
											}
										}
									}
								}
								JOINT LeftHandRing1
								{
									OFFSET 11.514786 -0.013176 -3.003090
									CHANNELS 3 Xrotation Yrotation Zrotation
									JOINT LeftHandRing2
									{
										OFFSET 3.053307 0.000000 0.000000
										CHANNELS 3 Xrotation Yrotation Zrotation
										JOINT LeftHandRing3
										{
											OFFSET 3.295807 0.000000 0.000000
											CHANNELS 3 Xrotation Yrotation Zrotation
											End Site
											{
												OFFSET -1.281006 3.013344 0.375733
											}
										}
									}
								}
								JOINT LeftHandPinky1
								{
									OFFSET 10.518692 -0.960396 -5.730441
									CHANNELS 3 Xrotation Yrotation Zrotation
									JOINT LeftHandPinky2
									{
										OFFSET 2.861649 0.000000 0.000000
										CHANNELS 3 Xrotation Yrotation Zrotation
										JOINT LeftHandPinky3
										{
											OFFSET 2.863380 0.000000 0.000000
											CHANNELS 3 Xrotation Yrotation Zrotation
											End Site
											{
												OFFSET -0.843597 2.711159 0.369971
											}
										}
									}
								}
							}
							JOINT LSleeve
							{
								OFFSET 6.676277 -0.344902 -1.011730
								CHANNELS 3 Xrotation Yrotation Zrotation
								End Site
								{
									OFFSET 0.000000 14.885353 0.000000
								}
							}
						}
					}
				}
				JOINT RightShoulder
				{
					OFFSET -6.197800 13.665199 -4.064700
					CHANNELS 3 Xrotation Yrotation Zrotation
					JOINT RightArm
					{
						OFFSET -7.778100 -0.187103 -1.709300
						CHANNELS 3 Xrotation Yrotation Zrotation
						JOINT RightForeArm
						{
							OFFSET -22.049376 0.000000 0.000000
							CHANNELS 3 Xrotation Yrotation Zrotation
							JOINT RightHand
							{
								OFFSET -23.009392 0.000000 0.000000
								CHANNELS 3 Xrotation Yrotation Zrotation
								JOINT RightHandThumb1
								{
									OFFSET -3.507191 -2.063065 3.133727
									CHANNELS 3 Xrotation Yrotation Zrotation
									JOINT RightHandThumb2
									{
										OFFSET -3.101337 -1.790558 1.790558
										CHANNELS 3 Xrotation Yrotation Zrotation
										JOINT RightHandThumb3
										{
											OFFSET -3.058640 -1.765907 1.765906
											CHANNELS 3 Xrotation Yrotation Zrotation
											End Site
											{
												OFFSET 0.415260 3.926476 -0.049563
											}
										}
									}
								}
								JOINT RightHandIndex1
								{
									OFFSET -11.334419 -0.901459 3.706815
									CHANNELS 3 Xrotation Yrotation Zrotation
									JOINT RightHandIndex2
									{
										OFFSET -3.283112 0.000000 0.000000
										CHANNELS 3 Xrotation Yrotation Zrotation
										JOINT RightHandIndex3
										{
											OFFSET -3.323853 0.000000 0.000000
											CHANNELS 3 Xrotation Yrotation Zrotation
											End Site
											{
												OFFSET 1.135597 3.097809 0.402452
											}
										}
									}
								}
								JOINT RightHandMiddle1
								{
									OFFSET -11.335861 0.000000 0.000000
									CHANNELS 3 Xrotation Yrotation Zrotation
									JOINT RightHandMiddle2
									{
										OFFSET -3.410492 0.000000 0.000000
										CHANNELS 3 Xrotation Yrotation Zrotation
										JOINT RightHandMiddle3
										{
											OFFSET -3.312172 0.000000 0.000000
											CHANNELS 3 Xrotation Yrotation Zrotation
											End Site
											{
												OFFSET 1.150200 3.080154 0.400270
											}
										}
									}
								}
								JOINT RightHandRing1
								{
									OFFSET -11.514786 -0.013176 -3.003090
									CHANNELS 3 Xrotation Yrotation Zrotation
									JOINT RightHandRing2
									{
										OFFSET -3.053307 0.000000 0.000000
										CHANNELS 3 Xrotation Yrotation Zrotation
										JOINT RightHandRing3
										{
											OFFSET -3.295807 0.000000 0.000000
											CHANNELS 3 Xrotation Yrotation Zrotation
											End Site
											{
												OFFSET 1.281006 3.013344 0.375733
											}
										}
									}
								}
								JOINT RightHandPinky1
								{
									OFFSET -10.518692 -0.960396 -5.730441
									CHANNELS 3 Xrotation Yrotation Zrotation
									JOINT RightHandPinky2
									{
										OFFSET -2.861649 0.000000 0.000000
										CHANNELS 3 Xrotation Yrotation Zrotation
										JOINT RightHandPinky3
										{
											OFFSET -2.863380 0.000000 0.000000
											CHANNELS 3 Xrotation Yrotation Zrotation
											End Site
											{
												OFFSET 0.843597 2.711159 0.369971
											}
										}
									}
								}
							}
							JOINT RSleeve
							{
								OFFSET -6.676277 -0.344902 -1.011730
								CHANNELS 3 Xrotation Yrotation Zrotation
								End Site
								{
									OFFSET 0.000000 14.885353 0.000000
								}
							}
						}
					}
				}
				JOINT Backpack
				{
					OFFSET 0.000000 -2.471497 36.677502
					CHANNELS 3 Xrotation Yrotation Zrotation
					End Site
					{
						OFFSET 0.000000 20.427315 0.000000
					}
				}
				JOINT Hood
				{
					OFFSET 0.000000 18.754097 -10.431000
					CHANNELS 3 Xrotation Yrotation Zrotation
					JOINT Hood1
					{
						OFFSET 0.000000 -5.011002 -7.685901
						CHANNELS 3 Xrotation Yrotation Zrotation
						End Site
						{
							OFFSET 0.000000 9.175140 0.000000
						}
					}
				}
				JOINT LHoodieString
				{
					OFFSET 5.250500 16.397697 3.089900
					CHANNELS 3 Xrotation Yrotation Zrotation
					JOINT LHoodieString1
					{
						OFFSET 0.257700 -6.364304 3.694600
						CHANNELS 3 Xrotation Yrotation Zrotation
						JOINT LHoodieString2
						{
							OFFSET 0.000000 -9.643799 2.679100
							CHANNELS 3 Xrotation Yrotation Zrotation
							End Site
							{
								OFFSET 0.000000 10.009018 0.000000
							}
						}
					}
				}
				JOINT RHoodieString
				{
					OFFSET -5.250500 16.397697 3.089900
					CHANNELS 3 Xrotation Yrotation Zrotation
					JOINT RHoodieString1
					{
						OFFSET -0.257700 -6.364304 3.694600
						CHANNELS 3 Xrotation Yrotation Zrotation
						JOINT RHoodieString2
						{
							OFFSET 0.000000 -9.643799 2.679100
							CHANNELS 3 Xrotation Yrotation Zrotation
							End Site
							{
								OFFSET 0.000000 10.009018 0.000000
							}
						}
					}
				}
			}
			JOINT LBackpack_Strap
			{
				OFFSET 15.223200 -7.719803 -6.610900
				CHANNELS 3 Xrotation Yrotation Zrotation
				End Site
				{
					OFFSET 0.000000 16.040596 0.000000
				}
			}
			JOINT RBackpack_Strap
			{
				OFFSET -15.223000 -7.719803 -6.610900
				CHANNELS 3 Xrotation Yrotation Zrotation
				End Site
				{
					OFFSET 0.000000 16.040596 0.000000
				}
			}
		}
	}
	JOINT BoyFacialAnim_Joint
	{
		OFFSET 1.000000 -82.208099 -1.550900
		CHANNELS 3 Xrotation Yrotation Zrotation
		End Site
		{
			OFFSET 0.000000 30.012791 0.000000
		}
	}
}
MOTION
Frames: 4
Frame Time: 0.016667
7.998746 81.527840 10.813459 -1.307951 6.009567 -5.774657 0.000000 0.000000 -0.000000 1.910480 10.729559 9.183994 15.744279 -7.046846 -0.335479 -17.676111 2.275369 -1.036500 0.000000 0.000001 -0.000000 0.000000 0.000001 0.000000 0.000003 -0.000000 0.000000 -32.092409 -7.046278 -1.783978 33.886105 0.215474 1.212412 -1.765593 0.490365 7.184048 -0.000000 -0.000000 0.000000 -0.000000 -0.000000 0.000000 -0.000000 -0.000000 0.000000 10.005145 -1.332371 3.191546 1.871314 -1.420407 1.481033 -3.085456 -1.618651 0.047467 -2.263181 -2.413852 6.433474 -4.853451 1.032563 -5.132382 -0.000000 -0.000000 0.000000 -0.000000 -0.000000 0.000000 -0.000000 -0.000000 0.000000 1.744051 -3.421884 -0.743977 -7.039691 -12.744836 -76.199981 9.887311 -11.719673 -4.534078 1.706382 -0.532265 7.848846 -4.356457 11.023678 11.798665 5.431351 10.003914 0.349283 0.000001 -0.000000 0.000000 2.289857 -1.111367 -15.774151 -0.016992 0.156543 -19.489077 -0.000002 0.000001 0.000000 -0.324420 0.423830 -19.903222 0.047037 0.327322 -24.651821 -0.000002 -0.000002 -0.000005 -1.103105 2.349904 -19.788690 -0.026225 0.169240 -29.078291 -0.000002 0.000001 -0.000000 -3.158369 2.690853 -30.313377 0.023804 0.128491 -31.162728 -0.000001 -0.000003 -0.000001 0.000001 0.000001 0.000000 2.245581 4.208255 6.197044 0.519969 4.376569 72.028825 11.172630 15.288351 2.172146 -7.832658 -0.659880 -5.101808 -0.466450 -9.625979 -6.004445 7.286163 -11.588854 1.091605 -0.000002 -0.000001 0.000001 2.690311 -4.660470 9.914379 -0.045372 -0.188965 19.171750 -0.000002 0.000000 0.000005 -1.689191 -5.560298 14.804558 0.093468 -0.624785 27.014822 0.000001 -0.000001 -0.000000 -4.593392 -8.836045 12.400049 -0.024345 -0.323705 32.805884 -0.000001 -0.000001 0.000000 -6.446318 -8.951905 24.517934 0.067055 -0.215942 34.229052 -0.000001 0.000000 -0.000005 -0.000000 -0.000000 -0.000000 0.000000 0.000000 0.000000 0.000000 0.000000 0.000000 0.000000 0.000000 0.000000 0.000000 0.000000 0.000000 0.000000 0.000000 0.000000 0.000000 0.000000 0.000000 0.000000 0.000000 0.000000 0.000000 0.000000 0.000000 0.000000 0.000000 0.000000 0.000001 -0.000000 -0.000000 0.000001 -0.000000 -0.000000 0.000000 0.000000 -0.000000 
7.969061 81.418945 11.494478 -1.180034 6.088417 -5.857145 -0.000000 0.000000 -0.000000 2.521993 10.616474 9.299869 15.433687 -6.942228 -0.331907 -18.098379 2.341819 -1.198342 0.000000 0.000000 -0.000000 0.000000 0.000000 0.000000 0.000002 -0.000000 0.000000 -31.314075 -7.193418 -1.459979 29.514115 1.299471 1.216087 -2.490096 0.448892 7.074146 0.000000 0.000000 -0.000001 0.000000 0.000000 -0.000001 0.000000 0.000000 -0.000000 10.193854 -1.398735 3.026967 1.658269 -1.547289 1.654123 -3.099211 -1.728067 0.284328 -2.452574 -2.344112 6.184122 -4.954937 1.081390 -5.347817 -0.000000 -0.000000 0.000000 -0.000000 -0.000000 0.000000 -0.000000 -0.000000 0.000000 1.747728 -3.049442 -1.011631 -6.924671 -13.420950 -75.877842 9.745417 -12.188606 -4.775191 2.092397 -0.946472 8.152624 -4.383292 11.106647 11.775339 5.357295 9.945689 0.408976 -0.000002 -0.000000 0.000002 2.245795 -1.355892 -16.178048 -0.017982 0.152856 -19.607412 -0.000001 -0.000001 -0.000002 -0.299591 0.156412 -20.277030 0.045376 0.314820 -24.655745 0.000000 -0.000001 -0.000004 -1.047554 1.972712 -20.300099 -0.026426 0.162929 -29.051014 0.000001 -0.000001 -0.000004 -3.136086 2.284606 -30.597987 0.022757 0.123704 -31.167249 -0.000003 -0.000000 0.000001 0.000000 0.000001 -0.000001 2.286456 4.046477 5.957245 0.577123 4.140630 72.193501 11.311818 15.036759 2.556840 -7.641448 -0.666294 -5.228116 -0.468195 -9.956637 -5.963560 7.202600 -11.575608 0.986480 0.000000 0.000001 0.000001 2.686116 -4.470805 10.325792 -0.045359 -0.188981 19.198523 -0.000000 -0.000000 0.000002 -1.600194 -5.334335 15.148419 0.090085 -0.605978 26.848425 0.000000 -0.000001 -0.000002 -4.387606 -8.479945 12.961568 -0.024760 -0.313822 32.544933 0.000000 -0.000001 0.000002 -6.273526 -8.522927 24.848129 0.066310 -0.215102 34.010756 -0.000001 0.000000 -0.000003 -0.000001 0.000000 -0.000001 -0.000000 0.000000 0.000000 -0.000000 0.000000 0.000000 -0.000000 0.000000 0.000000 -0.000000 0.000000 0.000000 -0.000000 0.000000 0.000000 -0.000000 0.000000 0.000000 -0.000000 0.000000 0.000000 -0.000000 0.000000 0.000000 -0.000000 0.000000 0.000000 -0.000000 -0.000000 0.000000 -0.000000 -0.000000 0.000000 -0.000000 0.000000 -0.000000 
7.915369 81.304649 12.198574 -1.036489 6.217686 -5.884489 -0.000000 -0.000000 0.000000 3.024586 10.436279 9.406022 15.308616 -6.820211 -0.332722 -18.472503 2.382875 -1.381114 -0.000000 -0.000001 0.000000 -0.000000 -0.000001 0.000000 0.000002 0.000001 -0.000000 -30.429572 -7.352191 -1.185961 25.171286 2.332954 1.257297 -3.113511 0.562712 6.467853 -0.000000 -0.000000 -0.000000 -0.000000 -0.000000 -0.000000 -0.000001 -0.000000 0.000000 10.281707 -1.484225 2.893375 1.530882 -1.655979 1.713171 -3.029679 -1.822409 0.405165 -2.777379 -2.362639 6.163047 -5.001021 1.132730 -5.650765 -0.000000 0.000000 0.000000 -0.000000 0.000000 0.000000 -0.000000 0.000000 0.000000 1.734721 -2.975680 -1.007657 -6.950074 -13.745412 -75.686883 9.739466 -12.702259 -4.881105 2.520968 -1.552534 8.466069 -4.410161 11.189403 11.752213 5.283390 9.887555 0.468344 0.000002 -0.000000 0.000004 2.198439 -1.599439 -16.581468 -0.018980 0.149172 -19.725595 -0.000003 0.000001 -0.000002 -0.278368 -0.110837 -20.650213 0.043783 0.302364 -24.659705 -0.000001 -0.000001 -0.000000 -0.999213 1.595604 -20.811902 -0.026620 0.156635 -29.023653 -0.000000 0.000001 -0.000000 -3.117948 1.878813 -30.880385 0.021729 0.118998 -31.171747 0.000000 -0.000000 -0.000002 0.000002 0.000000 0.000000 2.341270 3.697851 6.000391 0.577673 4.244789 72.228472 11.271321 14.839600 2.930581 -7.640641 -0.677187 -5.414276 -0.470746 -10.343837 -5.916572 7.104745 -11.559877 0.863601 -0.000001 0.000000 -0.000001 2.674552 -4.239840 10.801746 -0.045335 -0.189006 19.226322 -0.000001 0.000000 0.000002 -1.500438 -5.066634 15.545429 0.086127 -0.583990 26.650891 -0.000000 0.000001 0.000003 -4.154869 -8.063602 13.611052 -0.025333 -0.302243 32.236751 -0.000003 0.000001 0.000006 -6.074249 -8.029424 25.226233 0.065576 -0.214082 33.752930 -0.000000 -0.000001 0.000002 0.000001 -0.000000 -0.000001 -0.000001 0.000000 0.000000 -0.000001 0.000000 0.000000 -0.000001 0.000000 0.000000 -0.000001 0.000000 0.000000 -0.000001 0.000000 0.000000 -0.000001 0.000000 -0.000000 -0.000001 0.000000 0.000000 -0.000001 0.000000 0.000000 -0.000001 0.000000 -0.000000 0.000000 -0.000000 0.000000 0.000000 -0.000000 0.000000 -0.000000 -0.000000 0.000000 
7.851718 81.183945 12.935769 -0.834553 6.390805 -5.895643 -0.000000 0.000000 -0.000001 3.365053 10.262822 9.566154 15.370326 -6.871618 -0.398194 -18.825383 2.489132 -1.498061 -0.000000 0.000001 -0.000000 -0.000000 0.000001 0.000000 0.000001 0.000000 -0.000000 -29.628848 -7.499985 -1.139310 21.103579 2.632549 1.547903 -3.570795 0.951006 5.974707 -0.000001 0.000000 -0.000001 -0.000001 0.000000 -0.000001 0.000001 0.000000 -0.000000 10.405059 -1.577084 2.666664 1.273627 -1.788264 1.884379 -3.086572 -1.937610 0.641754 -2.875665 -2.328186 5.878670 -5.125605 1.143904 -5.846475 0.000000 0.000000 -0.000000 0.000000 0.000000 -0.000000 0.000000 0.000000 -0.000000 1.738334 -2.704593 -1.152259 -6.991228 -14.055439 -75.556400 10.158542 -13.161979 -4.994923 2.946560 -2.051335 8.656870 -4.437017 11.271952 11.729153 5.209711 9.829541 0.527509 0.000004 -0.000001 -0.000000 2.147821 -1.841603 -16.983759 -0.019987 0.145576 -19.843347 -0.000003 -0.000004 -0.000004 -0.260708 -0.377508 -21.022079 0.042241 0.289963 -24.663615 0.000003 0.000001 -0.000003 -0.958150 1.219239 -21.323487 -0.026841 0.150376 -28.996315 0.000000 0.000002 -0.000002 -3.103787 1.474199 -31.160614 0.020718 0.114297 -31.176330 -0.000004 0.000001 -0.000000 0.000000 -0.000000 -0.000000 2.373055 3.408514 5.817491 0.773665 4.237544 72.357405 11.267700 14.704967 3.217584 -7.714439 -0.569646 -5.519635 -0.474381 -10.781635 -5.864785 6.994188 -11.541827 0.724853 -0.000002 -0.000000 -0.000002 2.654089 -3.972527 11.335021 -0.045299 -0.189011 19.255078 -0.000003 0.000001 0.000004 -1.393037 -4.761476 15.989242 0.081604 -0.559099 26.425464 0.000000 -0.000001 -0.000000 -3.902704 -7.592000 14.337113 -0.025859 -0.289222 31.886748 -0.000001 0.000000 0.000002 -5.854043 -7.477580 25.644942 0.064656 -0.212906 33.459908 -0.000001 0.000000 -0.000003 0.000000 -0.000000 -0.000000 0.000000 0.000000 0.000000 0.000000 0.000000 0.000000 0.000000 0.000000 0.000000 0.000000 0.000000 0.000000 0.000000 0.000000 0.000000 -0.000001 0.000000 0.000000 0.000000 0.000000 0.000000 0.000000 0.000000 0.000000 -0.000001 0.000000 0.000000 0.000000 0.000000 -0.000000 0.000000 0.000000 -0.000000 -0.000000 0.000000 -0.000001 
